<svg width="24" height="24" viewBox="0 0 24 24" fill="none" xmlns="http://www.w3.org/2000/svg">
<path d="M23 5.92375C22.2563 6.25 21.4637 6.46625 20.6375 6.57125C21.4875 6.06375 22.1363 5.26625 22.4412 4.305C21.6488 4.7775 20.7738 5.11125 19.8412 5.2975C19.0887 4.49625 18.0162 4 16.8462 4C14.5763 4 12.7487 5.8425 12.7487 8.10125C12.7487 8.42625 12.7762 8.73875 12.8438 9.03625C9.435 8.87 6.41875 7.23625 4.3925 4.7475C4.03875 5.36125 3.83125 6.06375 3.83125 6.82C3.83125 8.24 4.5625 9.49875 5.6525 10.2275C4.99375 10.215 4.3475 10.0238 3.8 9.7225C3.8 9.735 3.8 9.75125 3.8 9.7675C3.8 11.76 5.22125 13.415 7.085 13.7962C6.75125 13.8875 6.3875 13.9312 6.01 13.9312C5.7475 13.9312 5.4825 13.9163 5.23375 13.8612C5.765 15.485 7.2725 16.6788 9.065 16.7175C7.67 17.8088 5.89875 18.4662 3.98125 18.4662C3.645 18.4662 3.3225 18.4513 3 18.41C4.81625 19.5813 6.96875 20.25 9.29 20.25C16.835 20.25 20.96 14 20.96 8.5825C20.96 8.40125 20.9538 8.22625 20.945 8.0525C21.7588 7.475 22.4425 6.75375 23 5.92375Z" fill="#111111"/>
</svg>
